<svg width="800" height="220" viewBox="0 0 800 220" xmlns="http://www.w3.org/2000/svg">
  <defs>
    <radialGradient id="bg" cx="30%" cy="40%" r="80%">
      <stop offset="0%" stop-color="#0E2438"/>
      <stop offset="100%" stop-color="#050D16"/>
    </radialGradient>
    <radialGradient id="body" cx="44%" cy="36%" r="58%">
      <stop offset="0%" stop-color="#1A3C58"/>
      <stop offset="45%" stop-color="#0D2438"/>
      <stop offset="100%" stop-color="#060E18"/>
    </radialGradient>
    <radialGradient id="bodySheen" cx="36%" cy="28%" r="48%">
      <stop offset="0%" stop-color="#2A6090" stop-opacity=".35"/>
      <stop offset="100%" stop-color="#2A6090" stop-opacity="0"/>
    </radialGradient>
    <radialGradient id="eyeIris" cx="35%" cy="32%" r="62%">
      <stop offset="0%" stop-color="#4ADEFF"/>
      <stop offset="60%" stop-color="#0FA8D8"/>
      <stop offset="100%" stop-color="#0868A8"/>
    </radialGradient>
    <radialGradient id="haloBlue" cx="50%" cy="50%" r="50%">
      <stop offset="0%" stop-color="#1E7EC8" stop-opacity=".45"/>
      <stop offset="100%" stop-color="#1E7EC8" stop-opacity="0"/>
    </radialGradient>
    <filter id="blur2"><feGaussianBlur stdDeviation="2.5"/></filter>
    <filter id="blur4"><feGaussianBlur stdDeviation="4"/></filter>
  </defs>

  <!-- background -->
  <rect width="800" height="220" rx="16" fill="url(#bg)"/>
  <rect width="800" height="220" rx="16" fill="none" stroke="#1A3A58" stroke-width="1.5"/>

  <!-- animated accent line at bottom -->
  <rect x="0" y="214" width="60" height="4" rx="2" fill="#12B5A8">
    <animate attributeName="x" from="-60" to="800" dur="3s" repeatCount="indefinite"/>
    <animate attributeName="opacity" values="0;1;1;0" keyTimes="0;.05;.85;1" dur="3s" repeatCount="indefinite"/>
  </rect>

  <!-- ─── OCTO CHARACTER ─── -->
  <g transform="translate(60, 8) scale(0.58)">
    <animateTransform attributeName="transform" type="translate" values="60,8;60,2;60,8" dur="4.2s" repeatCount="indefinite" additive="replace"/>
    <g transform="scale(0.58)">

    <!-- 8 arms -->
    <!-- Arm 1 far-left blue -->
    <path d="M108,208 C84,220 54,214 32,240 C18,256 26,274 20,292" stroke="#0D4878" stroke-width="10" fill="none" stroke-linecap="round"/>
    <path d="M108,208 C84,220 54,214 32,240 C18,256 26,274 20,292" stroke="#1E7EC8" stroke-width="5" fill="none" stroke-linecap="round" stroke-dasharray="14 16">
      <animate attributeName="opacity" values="0.28;1;0.28" dur="2.6s" begin="0s" repeatCount="indefinite"/>
    </path>
    <circle cx="74" cy="220" r="3.8" fill="#060E18" stroke="#1E7EC8" stroke-width="1.5" opacity=".55"/>
    <circle cx="50" cy="234" r="3.2" fill="#060E18" stroke="#1E7EC8" stroke-width="1.4" opacity=".5"/>

    <!-- Arm 2 left teal -->
    <path d="M118,218 C96,240 72,250 54,272 C40,288 42,304 36,318" stroke="#0A5850" stroke-width="10" fill="none" stroke-linecap="round"/>
    <path d="M118,218 C96,240 72,250 54,272 C40,288 42,304 36,318" stroke="#12B5A8" stroke-width="5" fill="none" stroke-linecap="round" stroke-dasharray="14 16">
      <animate attributeName="opacity" values="0.28;1;0.28" dur="2.6s" begin="0.33s" repeatCount="indefinite"/>
    </path>
    <circle cx="92" cy="238" r="3.8" fill="#060E18" stroke="#12B5A8" stroke-width="1.5" opacity=".55"/>

    <!-- Arm 3 centre-left green -->
    <path d="M132,226 C120,252 112,270 104,292 C96,308 90,316 84,330" stroke="#0A4A30" stroke-width="10" fill="none" stroke-linecap="round"/>
    <path d="M132,226 C120,252 112,270 104,292 C96,308 90,316 84,330" stroke="#18A06A" stroke-width="5" fill="none" stroke-linecap="round" stroke-dasharray="14 16">
      <animate attributeName="opacity" values="0.28;1;0.28" dur="2.6s" begin="0.66s" repeatCount="indefinite"/>
    </path>
    <circle cx="122" cy="252" r="3.8" fill="#060E18" stroke="#18A06A" stroke-width="1.5" opacity=".55"/>

    <!-- Arm 4 centre orange -->
    <path d="M148,230 C144,258 142,276 140,300 C138,316 132,326 130,340" stroke="#5A3008" stroke-width="10" fill="none" stroke-linecap="round"/>
    <path d="M148,230 C144,258 142,276 140,300 C138,316 132,326 130,340" stroke="#E07A20" stroke-width="5" fill="none" stroke-linecap="round" stroke-dasharray="14 16">
      <animate attributeName="opacity" values="0.28;1;0.28" dur="2.6s" begin="0.99s" repeatCount="indefinite"/>
    </path>
    <circle cx="144" cy="262" r="3.8" fill="#060E18" stroke="#E07A20" stroke-width="1.5" opacity=".55"/>

    <!-- Arm 5 centre-right blue -->
    <path d="M172,230 C176,258 178,276 180,300 C182,316 188,326 190,340" stroke="#0D4878" stroke-width="10" fill="none" stroke-linecap="round"/>
    <path d="M172,230 C176,258 178,276 180,300 C182,316 188,326 190,340" stroke="#1E7EC8" stroke-width="5" fill="none" stroke-linecap="round" stroke-dasharray="14 16">
      <animate attributeName="opacity" values="0.28;1;0.28" dur="2.6s" begin="1.32s" repeatCount="indefinite"/>
    </path>
    <circle cx="174" cy="260" r="3.8" fill="#060E18" stroke="#1E7EC8" stroke-width="1.5" opacity=".55"/>

    <!-- Arm 6 right green -->
    <path d="M188,226 C200,252 208,270 216,292 C224,308 230,316 236,330" stroke="#0A4A30" stroke-width="10" fill="none" stroke-linecap="round"/>
    <path d="M188,226 C200,252 208,270 216,292 C224,308 230,316 236,330" stroke="#18A06A" stroke-width="5" fill="none" stroke-linecap="round" stroke-dasharray="14 16">
      <animate attributeName="opacity" values="0.28;1;0.28" dur="2.6s" begin="1.65s" repeatCount="indefinite"/>
    </path>
    <circle cx="198" cy="252" r="3.8" fill="#060E18" stroke="#18A06A" stroke-width="1.5" opacity=".55"/>

    <!-- Arm 7 far-right teal -->
    <path d="M202,218 C224,240 248,250 266,272 C280,288 278,304 284,318" stroke="#0A5850" stroke-width="10" fill="none" stroke-linecap="round"/>
    <path d="M202,218 C224,240 248,250 266,272 C280,288 278,304 284,318" stroke="#12B5A8" stroke-width="5" fill="none" stroke-linecap="round" stroke-dasharray="14 16">
      <animate attributeName="opacity" values="0.28;1;0.28" dur="2.6s" begin="1.98s" repeatCount="indefinite"/>
    </path>
    <circle cx="228" cy="238" r="3.8" fill="#060E18" stroke="#12B5A8" stroke-width="1.5" opacity=".55"/>

    <!-- Arm 8 far-right orange -->
    <path d="M212,208 C236,220 266,214 288,240 C302,256 294,274 300,292" stroke="#5A3008" stroke-width="10" fill="none" stroke-linecap="round"/>
    <path d="M212,208 C236,220 266,214 288,240 C302,256 294,274 300,292" stroke="#E07A20" stroke-width="5" fill="none" stroke-linecap="round" stroke-dasharray="14 16">
      <animate attributeName="opacity" values="0.28;1;0.28" dur="2.6s" begin="2.31s" repeatCount="indefinite"/>
    </path>
    <circle cx="248" cy="220" r="3.8" fill="#060E18" stroke="#E07A20" stroke-width="1.5" opacity=".55"/>

    <!-- body shadow -->
    <ellipse cx="160" cy="156" rx="78" ry="86" fill="#040C16" opacity=".6" filter="url(#blur4)"/>

    <!-- main body -->
    <ellipse cx="160" cy="154" rx="74" ry="84" fill="url(#body)"/>
    <ellipse cx="160" cy="154" rx="74" ry="84" fill="url(#bodySheen)"/>

    <!-- skin texture -->
    <ellipse cx="138" cy="126" rx="6" ry="4" fill="#0D2C48" opacity=".6"/>
    <ellipse cx="178" cy="116" rx="5" ry="3.5" fill="#0D2C48" opacity=".5"/>
    <ellipse cx="152" cy="155" rx="5" ry="3" fill="#0A2238" opacity=".5"/>
    <ellipse cx="174" cy="146" rx="6.5" ry="4" fill="#0D2C48" opacity=".55"/>

    <!-- bioluminescent dots -->
    <circle cx="130" cy="138" r="4" fill="#12B5A8" opacity=".22" filter="url(#blur2)"/>
    <circle cx="188" cy="128" r="3.5" fill="#1E7EC8" opacity=".22" filter="url(#blur2)"/>
    <circle cx="156" cy="172" r="3" fill="#18A06A" opacity=".18" filter="url(#blur2)"/>

    <!-- body outline -->
    <ellipse cx="160" cy="154" rx="74" ry="84" fill="none" stroke="#1E5A88" stroke-width="1.5" opacity=".3"/>

    <!-- head ridge -->
    <path d="M 130,94 C 140,76 180,76 190,94" fill="none" stroke="#1A4A6A" stroke-width="2" opacity=".4" stroke-linecap="round"/>

    <!-- eye glow halos -->
    <circle cx="134" cy="148" r="24" fill="url(#haloBlue)"/>
    <circle cx="186" cy="148" r="24" fill="url(#haloBlue)"/>

    <!-- eye sockets -->
    <ellipse cx="134" cy="148" rx="19" ry="21" fill="#040C18"/>
    <ellipse cx="186" cy="148" rx="19" ry="21" fill="#040C18"/>

    <!-- iris -->
    <circle cx="134" cy="148" r="14" fill="url(#eyeIris)"/>
    <circle cx="186" cy="148" r="14" fill="url(#eyeIris)"/>

    <!-- pupils with blink -->
    <ellipse cx="134" cy="148" rx="5.5" ry="10" fill="#020810">
      <animate attributeName="ry" values="10;10;10;0.7;10;10" keyTimes="0;0.88;0.93;0.94;0.95;1" dur="4s" repeatCount="indefinite"/>
    </ellipse>
    <ellipse cx="186" cy="148" rx="5.5" ry="10" fill="#020810">
      <animate attributeName="ry" values="10;10;10;0.7;10;10" keyTimes="0;0.88;0.93;0.94;0.95;1" dur="4s" repeatCount="indefinite"/>
    </ellipse>

    <!-- eye highlights -->
    <circle cx="128" cy="141" r="4" fill="white" opacity=".72"/>
    <circle cx="130" cy="143" r="1.8" fill="white" opacity=".4"/>
    <circle cx="180" cy="141" r="4" fill="white" opacity=".72"/>
    <circle cx="182" cy="143" r="1.8" fill="white" opacity=".4"/>

    <!-- eye rings -->
    <ellipse cx="134" cy="148" rx="19" ry="21" fill="none" stroke="#1E6090" stroke-width="1.8" opacity=".45"/>
    <ellipse cx="186" cy="148" rx="19" ry="21" fill="none" stroke="#1E6090" stroke-width="1.8" opacity=".45"/>

    <!-- smile -->
    <path d="M146,174 C152,181 168,181 174,174" stroke="#1A7090" stroke-width="2.5" fill="none" stroke-linecap="round" opacity=".65"/>

    </g>
  </g>

  <!-- floating network nodes -->
  <circle cx="40" cy="60" r="4" fill="#060E18" stroke="#1E7EC8" stroke-width="1.5" opacity=".5"/>
  <circle cx="40" cy="60" r="1.6" fill="#1E7EC8" opacity=".8"/>
  <circle cx="28" cy="38" r="3" fill="#060E18" stroke="#12B5A8" stroke-width="1.2" opacity=".4"/>
  <circle cx="28" cy="38" r="1.2" fill="#12B5A8" opacity=".7"/>
  <line x1="35" y1="57" x2="30" y2="42" stroke="#12B5A8" stroke-width=".7" opacity=".15" stroke-dasharray="3 5"/>

  <!-- ─── TEXT SECTION ─── -->

  <!-- separator line -->
  <line x1="260" y1="40" x2="260" y2="180" stroke="#1A3A58" stroke-width="1" opacity=".6"/>

  <!-- title -->
  <text x="284" y="82" font-family="'Outfit','Segoe UI',system-ui,sans-serif" font-size="42" fill="#EEF6FF" font-weight="900" letter-spacing="2">KNOWLEDGE</text>
  <text x="284" y="130" font-family="'Outfit','Segoe UI',system-ui,sans-serif" font-size="42" fill="#EEF6FF" font-weight="900" letter-spacing="2">PULSE</text>

  <!-- version badge -->
  <rect x="530" y="110" width="60" height="22" rx="11" fill="#1A3A58"/>
  <text x="560" y="125" font-family="'JetBrains Mono',monospace" font-size="11" fill="#12B5A8" text-anchor="middle" font-weight="bold">v1.1.0</text>

  <!-- subtitle -->
  <text x="284" y="160" font-family="'JetBrains Mono',monospace" font-size="13" fill="#4A7FA5" letter-spacing=".5">Open AI Knowledge Sharing Protocol</text>

  <!-- protocol badges -->
  <rect x="284" y="174" width="64" height="20" rx="10" fill="#12B5A8" fill-opacity=".15"/>
  <text x="316" y="188" font-family="'JetBrains Mono',monospace" font-size="10" fill="#12B5A8" text-anchor="middle" font-weight="500">SKILL.md</text>

  <rect x="358" y="174" width="44" height="20" rx="10" fill="#1E7EC8" fill-opacity=".15"/>
  <text x="380" y="188" font-family="'JetBrains Mono',monospace" font-size="10" fill="#1E7EC8" text-anchor="middle" font-weight="500">MCP</text>

  <rect x="412" y="174" width="38" height="20" rx="10" fill="#18A06A" fill-opacity=".15"/>
  <text x="431" y="188" font-family="'JetBrains Mono',monospace" font-size="10" fill="#18A06A" text-anchor="middle" font-weight="500">SOP</text>

  <rect x="460" y="174" width="38" height="20" rx="10" fill="#E07A20" fill-opacity=".15"/>
  <text x="479" y="188" font-family="'JetBrains Mono',monospace" font-size="10" fill="#E07A20" text-anchor="middle" font-weight="500">REP</text>

  <!-- right-side decorative nodes -->
  <circle cx="760" cy="50" r="4" fill="#060E18" stroke="#E07A20" stroke-width="1.5" opacity=".4"/>
  <circle cx="760" cy="50" r="1.6" fill="#E07A20" opacity=".7"/>
  <circle cx="740" cy="170" r="3.5" fill="#060E18" stroke="#18A06A" stroke-width="1.3" opacity=".35"/>
  <circle cx="740" cy="170" r="1.4" fill="#18A06A" opacity=".65"/>
  <circle cx="775" cy="120" r="3" fill="#060E18" stroke="#12B5A8" stroke-width="1.2" opacity=".3"/>
  <circle cx="775" cy="120" r="1.2" fill="#12B5A8" opacity=".6"/>
  <line x1="758" y1="54" x2="773" y2="116" stroke="#E07A20" stroke-width=".6" opacity=".12" stroke-dasharray="3 5"/>
  <line x1="742" y1="166" x2="773" y2="124" stroke="#18A06A" stroke-width=".6" opacity=".12" stroke-dasharray="3 5"/>
</svg>
